# Blender 4.2.0
# www.blender.org
mtllib 1.mtl
o Cylinder.001
v 0.000000 1.000000 -0.650891
v 0.000000 3.000000 -0.650891
v -0.619034 0.778521 -0.201136
v -0.619034 3.000000 -0.201136
v -0.382584 0.923880 -0.526582
v -0.382584 3.000000 -0.526582
v 0.000000 1.000000 -3.000000
v 0.000000 -1.000000 -3.000000
v -0.382683 -0.923879 -3.000000
v -0.707107 -0.707107 -3.000000
v -0.923879 -0.382683 -3.000000
v -1.000000 0.000000 -3.000000
v -0.923879 0.382684 -3.000000
v -0.707107 0.707107 -3.000000
v -0.382683 0.923880 -3.000000
v 0.000000 -1.000000 -1.501136
v -0.382683 -0.923879 -1.301136
v -0.707107 -0.707107 -1.101136
v -0.923879 -0.382683 -0.901136
v -1.000000 0.000000 -0.701136
v -0.923879 0.382684 -0.501136
v -0.707107 0.707107 -0.301137
v 0.000000 -1.000000 -2.250891
v -0.382683 -0.923879 -2.050891
v -0.707107 -0.707107 -1.850891
v -0.923879 -0.382683 -1.650891
v -1.000000 0.000000 -1.450891
v -0.923879 0.382684 -1.250891
v -0.707107 0.707107 -1.050891
v -0.382683 0.923880 -0.850891
v 0.000000 -1.000000 0.000000
v -0.382683 -0.923879 0.000000
v -0.707107 -0.707107 0.000000
v -0.923879 -0.382683 0.000000
v -1.000000 0.000000 0.000000
v -0.923879 0.382684 0.000000
v -0.707107 0.707107 0.000000
v -0.619034 0.778521 0.000000
v -0.619034 3.000000 0.000000
v 0.000000 3.000000 0.000000
v 0.000000 0.000000 -3.000000
v 0.619034 0.778521 -0.201136
v 0.619034 3.000000 -0.201136
v 0.382584 0.923880 -0.526582
v 0.382584 3.000000 -0.526582
v 0.382683 -0.923879 -3.000000
v 0.707107 -0.707107 -3.000000
v 0.923879 -0.382683 -3.000000
v 1.000000 0.000000 -3.000000
v 0.923879 0.382684 -3.000000
v 0.707107 0.707107 -3.000000
v 0.382683 0.923880 -3.000000
v 0.382683 -0.923879 -1.301136
v 0.707107 -0.707107 -1.101136
v 0.923879 -0.382683 -0.901136
v 1.000000 0.000000 -0.701136
v 0.923879 0.382684 -0.501136
v 0.707107 0.707107 -0.301137
v 0.382683 -0.923879 -2.050891
v 0.707107 -0.707107 -1.850891
v 0.923879 -0.382683 -1.650891
v 1.000000 0.000000 -1.450891
v 0.923879 0.382684 -1.250891
v 0.707107 0.707107 -1.050891
v 0.382683 0.923880 -0.850891
v 0.382683 -0.923879 0.000000
v 0.707107 -0.707107 0.000000
v 0.923879 -0.382683 0.000000
v 1.000000 0.000000 0.000000
v 0.923879 0.382684 0.000000
v 0.707107 0.707107 0.000000
v 0.619034 0.778521 0.000000
v 0.619034 3.000000 0.000000
v 0.000000 1.000000 0.650891
v 0.000000 3.000000 0.650891
v -0.619034 0.778521 0.201136
v -0.619034 3.000000 0.201136
v -0.382584 0.923880 0.526582
v -0.382584 3.000000 0.526582
v 0.000000 1.000000 3.000000
v 0.000000 -1.000000 3.000000
v -0.382683 -0.923879 3.000000
v -0.707107 -0.707107 3.000000
v -0.923879 -0.382683 3.000000
v -1.000000 0.000000 3.000000
v -0.923879 0.382684 3.000000
v -0.707107 0.707107 3.000000
v -0.382683 0.923880 3.000000
v 0.000000 -1.000000 1.501136
v -0.382683 -0.923879 1.301136
v -0.707107 -0.707107 1.101136
v -0.923879 -0.382683 0.901136
v -1.000000 0.000000 0.701136
v -0.923879 0.382684 0.501136
v -0.707107 0.707107 0.301137
v 0.000000 -1.000000 2.250891
v -0.382683 -0.923879 2.050891
v -0.707107 -0.707107 1.850891
v -0.923879 -0.382683 1.650891
v -1.000000 0.000000 1.450891
v -0.923879 0.382684 1.250891
v -0.707107 0.707107 1.050891
v -0.382683 0.923880 0.850891
v 0.000000 0.000000 3.000000
v 0.619034 0.778521 0.201136
v 0.619034 3.000000 0.201136
v 0.382584 0.923880 0.526582
v 0.382584 3.000000 0.526582
v 0.382683 -0.923879 3.000000
v 0.707107 -0.707107 3.000000
v 0.923879 -0.382683 3.000000
v 1.000000 0.000000 3.000000
v 0.923879 0.382684 3.000000
v 0.707107 0.707107 3.000000
v 0.382683 0.923880 3.000000
v 0.382683 -0.923879 1.301136
v 0.707107 -0.707107 1.101136
v 0.923879 -0.382683 0.901136
v 1.000000 0.000000 0.701136
v 0.923879 0.382684 0.501136
v 0.707107 0.707107 0.301137
v 0.382683 -0.923879 2.050891
v 0.707107 -0.707107 1.850891
v 0.923879 -0.382683 1.650891
v 1.000000 0.000000 1.450891
v 0.923879 0.382684 1.250891
v 0.707107 0.707107 1.050891
v 0.382683 0.923880 0.850891
vn -1.0000 -0.0000 -0.0000
vn -0.9511 -0.0000 -0.3090
vn -0.9587 -0.0000 -0.2844
vn -0.5878 -0.0000 -0.8090
vn -0.6160 -0.0000 -0.7878
vn -0.0000 -0.0000 -1.0000
vn -0.0000 -1.0000 -0.0000
vn -0.3906 -0.9205 -0.0000
vn -0.7180 -0.6961 -0.0000
vn -0.9295 -0.3689 -0.0000
vn -0.9295 0.3689 -0.0000
vn -0.0000 1.0000 -0.0000
vn -0.3906 0.9205 -0.0000
vn -0.4516 0.8922 -0.0060
vn -0.7180 0.6961 -0.0000
vn -0.7453 0.6668 -0.0000
vn -0.7295 0.6838 -0.0129
vn -0.6132 0.7895 -0.0237
vn -0.6298 0.7767 -0.0000
vn 1.0000 -0.0000 -0.0000
vn 0.9587 -0.0000 -0.2844
vn 0.9511 -0.0000 -0.3090
vn 0.6160 -0.0000 -0.7878
vn 0.5878 -0.0000 -0.8090
vn 0.3906 -0.9205 -0.0000
vn 0.7180 -0.6961 -0.0000
vn 0.9295 -0.3689 -0.0000
vn 0.9295 0.3689 -0.0000
vn 0.4516 0.8922 -0.0060
vn 0.3906 0.9205 -0.0000
vn 0.7180 0.6961 -0.0000
vn 0.7295 0.6838 -0.0129
vn 0.7453 0.6668 -0.0000
vn 0.6132 0.7895 -0.0237
vn 0.6298 0.7767 -0.0000
vn -0.9587 -0.0000 0.2844
vn -0.9511 -0.0000 0.3090
vn -0.6160 -0.0000 0.7878
vn -0.5878 -0.0000 0.8090
vn -0.0000 -0.0000 1.0000
vn -0.4516 0.8922 0.0060
vn -0.7295 0.6838 0.0129
vn -0.6132 0.7895 0.0237
vn 0.9511 -0.0000 0.3090
vn 0.9587 -0.0000 0.2844
vn 0.5878 -0.0000 0.8090
vn 0.6160 -0.0000 0.7878
vn 0.4516 0.8922 0.0060
vn 0.7295 0.6838 0.0129
vn 0.6132 0.7895 0.0237
vt 0.250000 0.500000
vt 0.250000 1.000000
vt 0.200000 1.000000
vt 0.200000 0.500000
vt 0.100000 1.000000
vt 0.100000 0.500000
vt -0.000000 1.000000
vt -0.000000 0.500000
vt 0.500000 0.695759
vt 0.500000 0.733239
vt 0.437500 0.733239
vt 0.437500 0.695759
vt 0.375000 0.733239
vt 0.375000 0.695759
vt 0.312500 0.733239
vt 0.312500 0.695759
vt 0.250000 0.733239
vt 0.250000 0.695759
vt 0.187500 0.733239
vt 0.187500 0.695759
vt 0.000000 0.695759
vt 0.062500 0.695759
vt 0.062500 0.706118
vt 0.500000 0.500000
vt 0.437500 0.500000
vt 0.375000 0.500000
vt 0.312500 0.500000
vt 0.250000 0.500000
vt 0.187500 0.500000
vt 0.125000 0.695759
vt 0.125000 0.500000
vt 0.062500 0.500000
vt 0.000000 0.500000
vt 0.500000 0.750000
vt 0.437500 0.750000
vt 0.375000 0.750000
vt 0.312500 0.750000
vt 0.250000 0.750000
vt 0.187500 0.750000
vt 0.125000 0.750000
vt 0.125000 0.733239
vt 0.000000 0.000000
s 1
f 38/1/1 39/2/1 4/3/2 3/4/3
f 3/4/3 4/3/2 6/5/4 5/6/5
f 5/6/5 6/5/4 2/7/6 1/8/6
f 23/9/7 16/10/7 17/11/8 24/12/8
f 24/12/8 17/11/8 18/13/9 25/14/9
f 25/14/9 18/13/9 19/15/10 26/16/10
f 26/16/10 19/15/10 20/17/1 27/18/1
f 27/18/1 20/17/1 21/19/11 28/20/11
f 1/21/12 30/22/13 5/23/14
f 8/24/7 23/9/7 24/12/8 9/25/8
f 9/25/8 24/12/8 25/14/9 10/26/9
f 10/26/9 25/14/9 26/16/10 11/27/10
f 11/27/10 26/16/10 27/18/1 12/28/1
f 12/28/1 27/18/1 28/20/11 13/29/11
f 13/29/11 28/20/11 29/30/15 14/31/15
f 14/31/15 29/30/15 30/22/13 15/32/13
f 15/32/13 30/22/13 1/21/12 7/33/12
f 16/10/7 31/34/7 32/35/8 17/11/8
f 17/11/8 32/35/8 33/36/9 18/13/9
f 18/13/9 33/36/9 34/37/10 19/15/10
f 19/15/10 34/37/10 35/38/1 20/17/1
f 20/17/1 35/38/1 36/39/11 21/19/11
f 21/19/11 36/39/11 37/40/16 22/41/17
f 3/4/18 22/41/17 37/40/16 38/1/19
f 28/20/11 21/19/11 22/41/17 29/30/15
f 22/41/17 3/4/18 5/23/14
f 29/30/15 22/41/17 5/23/14 30/22/13
f 39/2/12 40/42/12 4/3/12
f 4/3/12 40/42/12 6/5/12
f 6/5/12 40/42/12 2/7/12
f 41/28/6 12/28/6 13/29/6 14/31/6
f 41/28/6 10/26/6 11/27/6 12/28/6
f 7/33/6 41/28/6 14/31/6 15/32/6
f 8/24/6 9/25/6 10/26/6 41/28/6
f 72/1/20 42/4/21 43/3/22 73/2/20
f 42/4/21 44/6/23 45/5/24 43/3/22
f 44/6/23 1/8/6 2/7/6 45/5/24
f 23/9/7 59/12/25 53/11/25 16/10/7
f 59/12/25 60/14/26 54/13/26 53/11/25
f 60/14/26 61/16/27 55/15/27 54/13/26
f 61/16/27 62/18/20 56/17/20 55/15/27
f 62/18/20 63/20/28 57/19/28 56/17/20
f 1/21/12 44/23/29 65/22/30
f 8/24/7 46/25/25 59/12/25 23/9/7
f 46/25/25 47/26/26 60/14/26 59/12/25
f 47/26/26 48/27/27 61/16/27 60/14/26
f 48/27/27 49/28/20 62/18/20 61/16/27
f 49/28/20 50/29/28 63/20/28 62/18/20
f 50/29/28 51/31/31 64/30/31 63/20/28
f 51/31/31 52/32/30 65/22/30 64/30/31
f 52/32/30 7/33/12 1/21/12 65/22/30
f 16/10/7 53/11/25 66/35/25 31/34/7
f 53/11/25 54/13/26 67/36/26 66/35/25
f 54/13/26 55/15/27 68/37/27 67/36/26
f 55/15/27 56/17/20 69/38/20 68/37/27
f 56/17/20 57/19/28 70/39/28 69/38/20
f 57/19/28 58/41/32 71/40/33 70/39/28
f 42/4/34 72/1/35 71/40/33 58/41/32
f 63/20/28 64/30/31 58/41/32 57/19/28
f 58/41/32 44/23/29 42/4/34
f 64/30/31 65/22/30 44/23/29 58/41/32
f 73/2/12 43/3/12 40/42/12
f 43/3/12 45/5/12 40/42/12
f 45/5/12 2/7/12 40/42/12
f 41/28/6 51/31/6 50/29/6 49/28/6
f 41/28/6 49/28/6 48/27/6 47/26/6
f 7/33/6 52/32/6 51/31/6 41/28/6
f 8/24/6 41/28/6 47/26/6 46/25/6
f 38/1/1 76/4/36 77/3/37 39/2/1
f 76/4/36 78/6/38 79/5/39 77/3/37
f 78/6/38 74/8/40 75/7/40 79/5/39
f 96/9/7 97/12/8 90/11/8 89/10/7
f 97/12/8 98/14/9 91/13/9 90/11/8
f 98/14/9 99/16/10 92/15/10 91/13/9
f 99/16/10 100/18/1 93/17/1 92/15/10
f 100/18/1 101/20/11 94/19/11 93/17/1
f 74/21/12 78/23/41 103/22/13
f 81/24/7 82/25/8 97/12/8 96/9/7
f 82/25/8 83/26/9 98/14/9 97/12/8
f 83/26/9 84/27/10 99/16/10 98/14/9
f 84/27/10 85/28/1 100/18/1 99/16/10
f 85/28/1 86/29/11 101/20/11 100/18/1
f 86/29/11 87/31/15 102/30/15 101/20/11
f 87/31/15 88/32/13 103/22/13 102/30/15
f 88/32/13 80/33/12 74/21/12 103/22/13
f 89/10/7 90/11/8 32/35/8 31/34/7
f 90/11/8 91/13/9 33/36/9 32/35/8
f 91/13/9 92/15/10 34/37/10 33/36/9
f 92/15/10 93/17/1 35/38/1 34/37/10
f 93/17/1 94/19/11 36/39/11 35/38/1
f 94/19/11 95/41/42 37/40/16 36/39/11
f 76/4/43 38/1/19 37/40/16 95/41/42
f 101/20/11 102/30/15 95/41/42 94/19/11
f 95/41/42 78/23/41 76/4/43
f 102/30/15 103/22/13 78/23/41 95/41/42
f 39/2/12 77/3/12 40/42/12
f 77/3/12 79/5/12 40/42/12
f 79/5/12 75/7/12 40/42/12
f 104/28/40 87/31/40 86/29/40 85/28/40
f 104/28/40 85/28/40 84/27/40 83/26/40
f 80/33/40 88/32/40 87/31/40 104/28/40
f 81/24/40 104/28/40 83/26/40 82/25/40
f 72/1/20 73/2/20 106/3/44 105/4/45
f 105/4/45 106/3/44 108/5/46 107/6/47
f 107/6/47 108/5/46 75/7/40 74/8/40
f 96/9/7 89/10/7 116/11/25 122/12/25
f 122/12/25 116/11/25 117/13/26 123/14/26
f 123/14/26 117/13/26 118/15/27 124/16/27
f 124/16/27 118/15/27 119/17/20 125/18/20
f 125/18/20 119/17/20 120/19/28 126/20/28
f 74/21/12 128/22/30 107/23/48
f 81/24/7 96/9/7 122/12/25 109/25/25
f 109/25/25 122/12/25 123/14/26 110/26/26
f 110/26/26 123/14/26 124/16/27 111/27/27
f 111/27/27 124/16/27 125/18/20 112/28/20
f 112/28/20 125/18/20 126/20/28 113/29/28
f 113/29/28 126/20/28 127/30/31 114/31/31
f 114/31/31 127/30/31 128/22/30 115/32/30
f 115/32/30 128/22/30 74/21/12 80/33/12
f 89/10/7 31/34/7 66/35/25 116/11/25
f 116/11/25 66/35/25 67/36/26 117/13/26
f 117/13/26 67/36/26 68/37/27 118/15/27
f 118/15/27 68/37/27 69/38/20 119/17/20
f 119/17/20 69/38/20 70/39/28 120/19/28
f 120/19/28 70/39/28 71/40/33 121/41/49
f 105/4/50 121/41/49 71/40/33 72/1/35
f 126/20/28 120/19/28 121/41/49 127/30/31
f 121/41/49 105/4/50 107/23/48
f 127/30/31 121/41/49 107/23/48 128/22/30
f 73/2/12 40/42/12 106/3/12
f 106/3/12 40/42/12 108/5/12
f 108/5/12 40/42/12 75/7/12
f 104/28/40 112/28/40 113/29/40 114/31/40
f 104/28/40 110/26/40 111/27/40 112/28/40
f 80/33/40 104/28/40 114/31/40 115/32/40
f 81/24/40 109/25/40 110/26/40 104/28/40
